Coordinates
version=1
nRows=19
nColumns=24
inDegrees=yes

Units are S.I. units (second, meters, Newtons, ...)
Angles are in degrees.

endheader
time	pelvis_tilt	pelvis_list	pelvis_rotation	pelvis_tx	pelvis_ty	pelvis_tz	hip_flexion_r	hip_adduction_r	hip_rotation_r	knee_angle_r	ankle_angle_r	subtalar_angle_r	mtp_angle_r	hip_flexion_l	hip_adduction_l	hip_rotation_l	knee_angle_l	ankle_angle_l	subtalar_angle_l	mtp_angle_l	lumbar_extension	lumbar_bending	lumbar_rotation
      1.53766667	     -0.35241431	      0.74712667	     -2.56009463	      0.54151596	      1.09032005	      0.29375590	     16.55080329	     -4.94795948	     -8.69928210	    -60.94324625	      4.32013350	     -1.76419057	      7.92506837	      3.98917829	      3.52475047	      3.74082561	    -10.86228950	      7.71657004	      1.60239122	      2.86309398	     -6.61804311	     -0.19450008	     -2.61124038
      1.54183333	     -0.37427189	      0.65040445	     -2.42147472	      0.54636428	      1.09068351	      0.29332987	     16.97003952	     -4.82852702	     -8.90650786	    -60.28476314	      4.61965790	     -1.62843676	      7.94484589	      3.55293055	      3.43412632	      3.84181109	    -10.49583327	      7.74846410	      1.67138043	      2.86999010	     -6.59508123	     -0.07055589	     -2.70187249
      1.54600000	     -0.38939398	      0.57945576	     -2.28873082	      0.55119364	      1.09097901	      0.29289949	     17.38600993	     -4.74688611	     -9.11341109	    -59.62428502	      4.92152798	     -1.45880396	      7.96926498	      3.10475293	      3.37383081	      3.97079087	    -10.11384993	      7.80245339	      1.70640807	      2.88089413	     -6.58076897	      0.05179350	     -2.86794851
      1.55016667	     -0.43542210	      0.50711157	     -2.16720636	      0.55602354	      1.09118268	      0.29252209	     17.82928818	     -4.65088067	     -9.29860350	    -58.93701925	      5.20446274	     -1.39613965	      7.98026369	      2.70413379	      3.30349498	      4.04923142	     -9.76102935	      7.84140673	      1.79603067	      2.88593142	     -6.53382356	      0.16221695	     -2.91501061
      1.55433333	     -0.46147501	      0.42239549	     -2.04441606	      0.56083971	      1.09138785	      0.29214077	     18.23586708	     -4.54385589	     -9.48827795	    -58.21176505	      5.47539713	     -1.30905640	      7.98984907	      2.28381223	      3.22022710	      4.14145585	     -9.41153299	      7.90883664	      1.87300082	      2.89181285	     -6.50755341	      0.28361874	     -2.98873021
      1.55850000	     -0.47319559	      0.35546966	     -1.91623462	      0.56562830	      1.09156446	      0.29176339	     18.62028070	     -4.46128704	     -9.67863051	    -57.46535989	      5.73774185	     -1.18742778	      8.00150219	      1.85209246	      3.15869408	      4.27974457	     -9.06792396	      7.97706421	      1.86405021	      2.90507584	     -6.49592901	      0.38064694	     -3.20147783
      1.56266667	     -0.49259594	      0.28972694	     -1.80233969	      0.57040145	      1.09168630	      0.29143766	     19.00923562	     -4.36873503	     -9.84584633	    -56.69803345	      5.98537704	     -1.16344331	      8.00602983	      1.43549018	      3.09264686	      4.38604290	     -8.73610254	      8.03529343	      1.89557892	      2.91847594	     -6.48336230	      0.47513229	     -3.30107033
      1.56683333	     -0.54343007	      0.23408393	     -1.70310361	      0.57518108	      1.09169142	      0.29115090	     19.43148651	     -4.28151652	     -9.99411747	    -55.92178204	      6.23695321	     -1.17716911	      8.00789198	      1.06280064	      3.03221357	      4.44971870	     -8.42456323	      8.10583965	      1.97566200	      2.92485923	     -6.43559991	      0.55518025	     -3.32851982
      1.57100000	     -0.58418309	      0.16147472	     -1.59372468	      0.57994307	      1.09169285	      0.29085514	     19.82228073	     -4.17584976	    -10.14873084	    -55.09970512	      6.45605271	     -1.18859985	      8.00513000	      0.68984056	      2.95429534	      4.53650106	     -8.13547675	      8.19413492	      2.02272075	      2.93401274	     -6.39752646	      0.64789888	     -3.40184507
      1.57516667	     -0.63120047	      0.12195784	     -1.50574498	      0.58469853	      1.09160645	      0.29061435	     20.23021922	     -4.10147599	    -10.27541526	    -54.28983199	      6.68012780	     -1.24491259	      8.00200929	      0.31921679	      2.90930722	      4.60847642	     -7.83394718	      8.28686707	      2.09215396	      2.94097188	     -6.35489886	      0.71115796	     -3.44801625
      1.57933333	     -0.66048434	      0.05721222	     -1.40076177	      0.58943652	      1.09155687	      0.29035606	     20.59010883	     -3.99864251	    -10.41341475	    -53.41747665	      6.83553945	     -1.34433548	      7.98063018	     -0.06079484	      2.83800487	      4.72456249	     -7.55452834	      8.38037620	      2.08829770	      2.95697789	     -6.32966198	      0.80408277	     -3.58944539
      1.58350000	     -0.71449673	      0.02409173	     -1.32033719	      0.59416348	      1.09137295	      0.29016528	     20.98935518	     -3.92302848	    -10.51945163	    -52.56693583	      7.06231833	     -1.43901537	      7.97294563	     -0.40882827	      2.79598342	      4.78776319	     -7.28027855	      8.47367090	      2.15624633	      2.96432227	     -6.28520461	      0.84677411	     -3.61116624
      1.58766667	     -0.77039613	     -0.01034183	     -1.23663131	      0.59889709	      1.09115302	      0.28997686	     21.37699537	     -3.84396758	    -10.62246909	    -51.68726930	      7.24288381	     -1.57271847	      7.96049925	     -0.74820641	      2.75171507	      4.86132537	     -7.02396221	      8.58112288	      2.20733239	      2.97236581	     -6.23802057	      0.89882620	     -3.64624566
      1.59183333	     -0.80975196	     -0.05230776	     -1.14946508	      0.60360154	      1.09095190	      0.28981242	     21.72937122	     -3.74809362	    -10.71231623	    -50.76303823	      7.34269469	     -1.79006402	      7.92428060	     -1.09771654	      2.69854340	      4.95720252	     -6.78315234	      8.68697124	      2.20727732	      2.98690825	     -6.20351417	      0.95349080	     -3.73563956
      1.59600000	     -0.85984924	     -0.07360243	     -1.07021149	      0.60829185	      1.09066775	      0.28966909	     22.09572549	     -3.67436228	    -10.79079365	    -49.84543955	      7.50707306	     -1.97677941	      7.89547959	     -1.42966254	      2.66615231	      5.03896966	     -6.55035126	      8.78804511	      2.23861768	      2.99800441	     -6.17228072	      0.97991156	     -3.77528857
      1.60016667	     -0.89821167	     -0.09254125	     -0.99689199	      0.61298577	      1.09035682	      0.28955509	     22.43998480	     -3.59788173	    -10.85718483	    -48.90884106	      7.63477336	     -2.20545884	      7.86156130	     -1.77447604	      2.63460173	      5.11690813	     -6.31988032	      8.90188111	      2.26769084	      3.00908373	     -6.14975822	      1.00760455	     -3.81318535
      1.60433333	     -0.94115179	     -0.09698557	     -0.93206189	      0.61767625	      1.08999687	      0.28946529	     22.78669365	     -3.53231800	    -10.90799811	    -47.96238510	      7.72101373	     -2.47346327	      7.80862856	     -2.11662524	      2.61833364	      5.19985334	     -6.08396202	      9.01991846	      2.28291600	      3.02308119	     -6.12067159	      1.01107488	     -3.86124790
      1.60850000	     -0.99090179	     -0.10583114	     -0.86159870	      0.62236512	      1.08958972	      0.28937625	     23.12639303	     -3.46081319	    -10.95753717	    -46.99367119	      7.83817627	     -2.72785883	      7.76506179	     -2.43848669	      2.59571470	      5.27353550	     -5.87621920	      9.13592816	      2.31107677	      3.03363615	     -6.09261481	      1.02174253	     -3.88354242
      1.61266667	     -1.03608771	     -0.09468473	     -0.80453287	      0.62705067	      1.08913651	      0.28933296	     23.46232095	     -3.40249040	    -10.98257358	    -46.02359711	      7.90686668	     -3.02449035	      7.69392483	     -2.77235720	      2.59351124	      5.35478673	     -5.65401504	      9.25643806	      2.32531672	      3.04735687	     -6.06982035	      1.00417437	     -3.91937799
